<svg xmlns="http://www.w3.org/2000/svg" width="438" height="389" viewBox="0 0 438 389">
  <g id="Group_18" data-name="Group 18" transform="translate(-1284.5 -388)">
    <g id="Group_17" data-name="Group 17">
      <g id="Rectangle_1" data-name="Rectangle 1" transform="translate(1366 469)" fill="#fff" stroke="#92771c" stroke-width="5">
        <rect width="275" height="227" stroke="none"/>
        <rect x="2.5" y="2.5" width="270" height="222" fill="none"/>
      </g>
      <g id="Group_1" data-name="Group 1" transform="translate(0 12)">
        <path id="Path_1" data-name="Path 1" d="M0,41V0" transform="translate(1403.5 416)" fill="none" stroke="#031942" stroke-width="5"/>
        <g id="Ellipse_1" data-name="Ellipse 1" transform="translate(1396 403)" fill="none" stroke="#031942" stroke-width="2">
          <circle cx="7" cy="7" r="7" stroke="none"/>
          <circle cx="7" cy="7" r="6" fill="none"/>
        </g>
      </g>
      <g id="Group_14" data-name="Group 14" transform="translate(1598.25 696)">
        <path id="Path_1-2" data-name="Path 1" d="M0,0V41" transform="translate(6.5)" fill="none" stroke="#031942" stroke-width="5"/>
        <g id="Ellipse_1-2" data-name="Ellipse 1" transform="translate(0 40)" fill="none" stroke="#031942" stroke-width="2">
          <circle cx="7" cy="7" r="7" stroke="none"/>
          <circle cx="7" cy="7" r="6" fill="none"/>
        </g>
      </g>
      <g id="Group_5" data-name="Group 5" transform="translate(2098.5 -927) rotate(90)">
        <path id="Path_1-3" data-name="Path 1" d="M0,41V0" transform="translate(1403.5 416)" fill="none" stroke="#031942" stroke-width="5"/>
        <g id="Ellipse_1-3" data-name="Ellipse 1" transform="translate(1396 403)" fill="none" stroke="#031942" stroke-width="2">
          <circle cx="7" cy="7" r="7" stroke="none"/>
          <circle cx="7" cy="7" r="6" fill="none"/>
        </g>
      </g>
      <g id="Group_9" data-name="Group 9" transform="translate(1311.5 695.5) rotate(-90)">
        <path id="Path_1-4" data-name="Path 1" d="M0,41V0" transform="translate(7.5 13)" fill="none" stroke="#031942" stroke-width="5"/>
        <g id="Ellipse_1-4" data-name="Ellipse 1" transform="translate(0 0)" fill="none" stroke="#031942" stroke-width="2">
          <circle cx="7" cy="7" r="7" stroke="none"/>
          <circle cx="7" cy="7" r="6" fill="none"/>
        </g>
      </g>
      <g id="Group_2" data-name="Group 2" transform="translate(0 12)">
        <path id="Path_2" data-name="Path 2" d="M0,68V0" transform="translate(1466.5 389.5)" fill="none" stroke="#8e782f" stroke-width="5"/>
        <g id="Ellipse_2" data-name="Ellipse 2" transform="translate(1460 376)" fill="none" stroke="#8e782f" stroke-width="2">
          <circle cx="7" cy="7" r="7" stroke="none"/>
          <circle cx="7" cy="7" r="6" fill="none"/>
        </g>
      </g>
      <g id="Group_13" data-name="Group 13" transform="translate(1534.25 695.5)">
        <path id="Path_2-2" data-name="Path 2" d="M0,0V68" transform="translate(7.5)" fill="none" stroke="#8e782f" stroke-width="5"/>
        <g id="Ellipse_2-2" data-name="Ellipse 2" transform="translate(0 67.5)" fill="none" stroke="#8e782f" stroke-width="2">
          <circle cx="7" cy="7" r="7" stroke="none"/>
          <circle cx="7" cy="7" r="6" fill="none"/>
        </g>
      </g>
      <g id="Group_6" data-name="Group 6" transform="translate(2098.5 -927) rotate(90)">
        <path id="Path_2-3" data-name="Path 2" d="M0,68V0" transform="translate(1466.5 389.5)" fill="none" stroke="#8e782f" stroke-width="5"/>
        <g id="Ellipse_2-3" data-name="Ellipse 2" transform="translate(1460 376)" fill="none" stroke="#8e782f" stroke-width="2">
          <circle cx="7" cy="7" r="7" stroke="none"/>
          <circle cx="7" cy="7" r="6" fill="none"/>
        </g>
      </g>
      <g id="Group_10" data-name="Group 10" transform="translate(1284.5 631.5) rotate(-90)">
        <path id="Path_2-4" data-name="Path 2" d="M0,68V0" transform="translate(6.5 13.5)" fill="none" stroke="#8e782f" stroke-width="5"/>
        <g id="Ellipse_2-4" data-name="Ellipse 2" transform="translate(0 0)" fill="none" stroke="#8e782f" stroke-width="2">
          <circle cx="7" cy="7" r="7" stroke="none"/>
          <circle cx="7" cy="7" r="6" fill="none"/>
        </g>
      </g>
      <g id="Group_3" data-name="Group 3" transform="translate(0 12)">
        <path id="Path_3" data-name="Path 3" d="M0,25.827V0" transform="translate(1529.5 431.673)" fill="none" stroke="#031942" stroke-width="5"/>
        <g id="Ellipse_3" data-name="Ellipse 3" transform="translate(1522 419)" fill="none" stroke="#031942" stroke-width="2">
          <circle cx="7" cy="7" r="7" stroke="none"/>
          <circle cx="7" cy="7" r="6" fill="none"/>
        </g>
      </g>
      <g id="Group_16" data-name="Group 16" transform="translate(1472.25 695.5)">
        <path id="Path_3-2" data-name="Path 3" d="M0,0V25.827" transform="translate(6.5 0)" fill="none" stroke="#031942" stroke-width="5"/>
        <g id="Ellipse_3-2" data-name="Ellipse 3" transform="translate(0 24.5)" fill="none" stroke="#031942" stroke-width="2">
          <circle cx="7" cy="7" r="7" stroke="none"/>
          <circle cx="7" cy="7" r="6" fill="none"/>
        </g>
      </g>
      <g id="Group_7" data-name="Group 7" transform="translate(2098.5 -927) rotate(90)">
        <path id="Path_3-3" data-name="Path 3" d="M0,25.827V0" transform="translate(1529.5 431.673)" fill="none" stroke="#031942" stroke-width="5"/>
        <g id="Ellipse_3-3" data-name="Ellipse 3" transform="translate(1522 419)" fill="none" stroke="#031942" stroke-width="2">
          <circle cx="7" cy="7" r="7" stroke="none"/>
          <circle cx="7" cy="7" r="6" fill="none"/>
        </g>
      </g>
      <g id="Group_11" data-name="Group 11" transform="translate(1327.5 569.5) rotate(-90)">
        <path id="Path_3-4" data-name="Path 3" d="M0,25.827V0" transform="translate(7.5 12.673)" fill="none" stroke="#031942" stroke-width="5"/>
        <g id="Ellipse_3-4" data-name="Ellipse 3" transform="translate(0 0)" fill="none" stroke="#031942" stroke-width="2">
          <circle cx="7" cy="7" r="7" stroke="none"/>
          <circle cx="7" cy="7" r="6" fill="none"/>
        </g>
      </g>
      <g id="Group_4" data-name="Group 4" transform="translate(0 12)">
        <path id="Path_4" data-name="Path 4" d="M0,63.765V0" transform="translate(1590.5 393.235)" fill="none" stroke="#92771c" stroke-linecap="square" stroke-width="5"/>
        <path id="Path_5" data-name="Path 5" d="M0,29.157V0" transform="translate(1619.657 390) rotate(90)" fill="none" stroke="#92771c" stroke-linecap="square" stroke-width="5"/>
        <g id="Ellipse_4" data-name="Ellipse 4" transform="translate(1620 383)" fill="none" stroke="#92771c" stroke-width="2">
          <circle cx="7" cy="7" r="7" stroke="none"/>
          <circle cx="7" cy="7" r="6" fill="none"/>
        </g>
      </g>
      <g id="Group_15" data-name="Group 15" transform="translate(1374.25 696)">
        <path id="Path_4-2" data-name="Path 4" d="M0,0V63.765" transform="translate(43.5 0)" fill="none" stroke="#92771c" stroke-linecap="square" stroke-width="5"/>
        <path id="Path_5-2" data-name="Path 5" d="M0,29.157V0" transform="translate(14.343 67) rotate(-90)" fill="none" stroke="#92771c" stroke-linecap="square" stroke-width="5"/>
        <g id="Ellipse_4-2" data-name="Ellipse 4" transform="translate(0 60)" fill="none" stroke="#92771c" stroke-width="2">
          <circle cx="7" cy="7" r="7" stroke="none"/>
          <circle cx="7" cy="7" r="6" fill="none"/>
        </g>
      </g>
      <g id="Group_8" data-name="Group 8" transform="translate(2098.5 -927) rotate(90)">
        <path id="Path_4-3" data-name="Path 4" d="M0,63.765V0" transform="translate(1590.5 393.235)" fill="none" stroke="#92771c" stroke-linecap="square" stroke-width="5"/>
        <path id="Path_5-3" data-name="Path 5" d="M0,29.157V0" transform="translate(1619.657 390) rotate(90)" fill="none" stroke="#92771c" stroke-linecap="square" stroke-width="5"/>
        <g id="Ellipse_4-3" data-name="Ellipse 4" transform="translate(1620 383)" fill="none" stroke="#92771c" stroke-width="2">
          <circle cx="7" cy="7" r="7" stroke="none"/>
          <circle cx="7" cy="7" r="6" fill="none"/>
        </g>
      </g>
      <g id="Group_12" data-name="Group 12" transform="translate(1291.5 501) rotate(-90)">
        <path id="Path_4-4" data-name="Path 4" d="M0,63.765V0" transform="translate(0 10.235)" fill="none" stroke="#92771c" stroke-linecap="square" stroke-width="5"/>
        <path id="Path_5-4" data-name="Path 5" d="M0,29.157V0" transform="translate(29.157 7) rotate(90)" fill="none" stroke="#92771c" stroke-linecap="square" stroke-width="5"/>
        <g id="Ellipse_4-4" data-name="Ellipse 4" transform="translate(29.5 0)" fill="none" stroke="#92771c" stroke-width="2">
          <circle cx="7" cy="7" r="7" stroke="none"/>
          <circle cx="7" cy="7" r="6" fill="none"/>
        </g>
      </g>
    </g>
    <rect id="Rectangle_2" data-name="Rectangle 2" width="220" height="185" transform="translate(1394 490)" fill="#214295"/>
    <text id="BUCC" transform="translate(1504 607)" fill="#fff" font-size="60" font-family="Swiss721BT-Roman, Swis721 BT" letter-spacing="0.005em"><tspan x="-84.356" y="0">BUCC</tspan></text>
    <path id="Path_6" data-name="Path 6" d="M0,76.29V0" transform="translate(1438.5 489.21)" fill="none" stroke="#fff" stroke-width="5"/>
    <path id="Path_7" data-name="Path 7" d="M0,76.29V0" transform="translate(1483.5 602.21)" fill="none" stroke="#fff" stroke-width="5"/>
    <path id="Path_8" data-name="Path 8" d="M0,76.29V0" transform="translate(1525.5 489.21)" fill="none" stroke="#fff" stroke-width="5"/>
    <path id="Path_9" data-name="Path 9" d="M0,76.29V0" transform="translate(1568.5 602.21)" fill="none" stroke="#fff" stroke-width="5"/>
  </g>
</svg>
