<svg width="56" height="50" viewBox="0 0 56 50" fill="none" xmlns="http://www.w3.org/2000/svg">
<g clip-path="url(#clip0_49_84)">
<path d="M27.2582 14.4785L9.33333 29.3076V45.3125C9.33333 45.7269 9.49721 46.1243 9.78894 46.4174C10.0807 46.7104 10.4763 46.875 10.8889 46.875L21.7836 46.8467C22.1948 46.8446 22.5885 46.6791 22.8785 46.3863C23.1686 46.0935 23.3314 45.6972 23.3314 45.2842V35.9375C23.3314 35.5231 23.4953 35.1257 23.787 34.8327C24.0787 34.5396 24.4744 34.375 24.8869 34.375H31.1092C31.5217 34.375 31.9174 34.5396 32.2091 34.8327C32.5008 35.1257 32.6647 35.5231 32.6647 35.9375V45.2774C32.6641 45.483 32.7038 45.6867 32.7817 45.8768C32.8596 46.0669 32.9741 46.2398 33.1186 46.3854C33.2631 46.531 33.4348 46.6465 33.6239 46.7253C33.8129 46.8042 34.0156 46.8447 34.2203 46.8447L45.1111 46.875C45.5237 46.875 45.9193 46.7104 46.211 46.4174C46.5028 46.1243 46.6667 45.7269 46.6667 45.3125V29.2969L28.7457 14.4785C28.535 14.3079 28.2725 14.2149 28.0019 14.2149C27.7313 14.2149 27.4689 14.3079 27.2582 14.4785V14.4785ZM55.5722 24.5576L47.4444 17.8281V4.30176C47.4444 3.99096 47.3215 3.69289 47.1027 3.47312C46.8839 3.25335 46.5872 3.12988 46.2778 3.12988H40.8333C40.5239 3.12988 40.2272 3.25335 40.0084 3.47312C39.7896 3.69289 39.6667 3.99096 39.6667 4.30176V11.3926L30.9624 4.19922C30.127 3.50877 29.0789 3.13126 27.9971 3.13126C26.9153 3.13126 25.8671 3.50877 25.0318 4.19922L0.421937 24.5576C0.3038 24.6557 0.20606 24.7762 0.134302 24.9122C0.0625442 25.0483 0.0181748 25.1972 0.00372892 25.3504C-0.010717 25.5037 0.00504385 25.6583 0.0501108 25.8055C0.0951777 25.9526 0.168668 26.0894 0.266381 26.208L2.74555 29.2354C2.843 29.3544 2.96286 29.4529 3.09827 29.5254C3.23368 29.5978 3.38199 29.6427 3.53469 29.6575C3.6874 29.6723 3.84151 29.6566 3.9882 29.6115C4.1349 29.5664 4.27129 29.4927 4.38958 29.3945L27.2582 10.4746C27.4689 10.304 27.7313 10.211 28.0019 10.211C28.2725 10.211 28.535 10.304 28.7457 10.4746L51.6153 29.3945C51.7334 29.4927 51.8695 29.5665 52.016 29.6118C52.1625 29.657 52.3164 29.6729 52.469 29.6584C52.6216 29.6439 52.7699 29.5993 52.9053 29.5272C53.0407 29.4551 53.1607 29.357 53.2583 29.2383L55.7375 26.2109C55.8351 26.0916 55.9083 25.9542 55.9528 25.8064C55.9974 25.6586 56.0124 25.5034 55.997 25.3498C55.9817 25.1961 55.9362 25.0471 55.8633 24.9111C55.7904 24.7752 55.6915 24.655 55.5722 24.5576V24.5576Z" fill="#214295"/>
</g>
<defs>
<clipPath id="clip0_49_84">
<rect width="56" height="50" fill="white"/>
</clipPath>
</defs>
</svg>
