<svg width="40" height="54" viewBox="0 0 40 54" fill="none" xmlns="http://www.w3.org/2000/svg">
<path d="M21.0439 0C12.7294 0 7.34407 3.44914 3.11605 9.6004C2.34907 10.7163 2.58552 12.2462 3.65542 13.0676L8.14896 16.5174C9.22948 17.3469 10.7669 17.1529 11.6128 16.0799C14.2221 12.7702 16.1576 10.8645 20.2333 10.8645C23.4379 10.8645 27.4017 12.9527 27.4017 16.0991C27.4017 18.4776 25.4624 19.6991 22.2982 21.4953C18.6083 23.5899 13.7254 26.1966 13.7254 32.7177V33.75C13.7254 35.148 14.8447 36.2812 16.2254 36.2812H23.7745C25.1552 36.2812 26.2745 35.148 26.2745 33.75V33.1411C26.2745 28.6207 39.3232 28.4325 39.3232 16.2C39.3233 6.98794 29.8856 0 21.0439 0ZM20 39.3883C16.0213 39.3883 12.7843 42.6657 12.7843 46.6942C12.7843 50.7226 16.0213 54 20 54C23.9788 54 27.2157 50.7226 27.2157 46.6941C27.2157 42.6656 23.9788 39.3883 20 39.3883Z" fill="#214295"/>
</svg>
